<?xml version="1.0" encoding="iso-8859-1"?>
<!-- Generator: Adobe Illustrator 18.1.1, SVG Export Plug-In . SVG Version: 6.00 Build 0)  -->
<svg version="1.1" id="Capa_1" xmlns="http://www.w3.org/2000/svg" xmlns:xlink="http://www.w3.org/1999/xlink" x="0px" y="0px"
	 viewBox="0 0 30 30" style="enable-background:new 0 0 30 30;" xml:space="preserve">
<g>
	<g>
		<path style="fill:#010002;" d="M28,15.35V10h-2V8h2V0H0v8h2v2H0v8h2v2H0v8h15.35c1.545,1.248,3.51,1.999,5.65,2
			c4.971-0.002,8.998-4.029,9-9C29.999,18.857,29.248,16.895,28,15.35z M2,4h4v2H2V4z M24,8v2H4V8H24z M2,14h4v2H2V14z M6,26H2v-2h4
			V26z M12.059,20H4v-2h8.522C12.297,18.639,12.135,19.307,12.059,20z M21,27.883c-3.801-0.009-6.876-3.084-6.885-6.883
			c0.009-3.801,3.084-6.876,6.885-6.885c3.799,0.009,6.874,3.084,6.883,6.885C27.874,24.799,24.799,27.874,21,27.883z"/>
		<polygon style="fill:#010002;" points="20,21 18,19 16,21 20,25 26,19 24,17 		"/>
	</g>
</g>
<g>
</g>
<g>
</g>
<g>
</g>
<g>
</g>
<g>
</g>
<g>
</g>
<g>
</g>
<g>
</g>
<g>
</g>
<g>
</g>
<g>
</g>
<g>
</g>
<g>
</g>
<g>
</g>
<g>
</g>
</svg>
