<?xml version="1.0" standalone="no"?>
<!DOCTYPE svg PUBLIC "-//W3C//DTD SVG 20010904//EN"
 "http://www.w3.org/TR/2001/REC-SVG-20010904/DTD/svg10.dtd">
<svg version="1.0" xmlns="http://www.w3.org/2000/svg"
 width="85.000000pt" height="85.000000pt" viewBox="0 0 85.000000 85.000000"
 preserveAspectRatio="xMidYMid meet">
<metadata>
Created by potrace 1.14, written by Peter Selinger 2001-2017
</metadata>
<g transform="translate(0.000000,85.000000) scale(0.100000,-0.100000)"
fill="#000000" stroke="none">
<path d="M378 710 c-15 -25 -62 -124 -106 -220 -120 -265 -167 -354 -204 -385
-31 -26 -31 -28 -8 -22 55 13 431 67 529 75 109 10 155 5 197 -23 22 -14 20
-8 -17 47 -23 34 -77 108 -120 163 -111 145 -232 335 -239 375 l-6 35 -26 -45z
m23 -153 c20 -18 69 -78 109 -133 40 -54 86 -113 102 -130 l29 -31 -58 -26
c-62 -28 -297 -87 -344 -87 -27 0 -29 2 -23 27 4 16 31 90 61 166 30 76 59
163 66 193 6 30 14 54 17 54 3 0 21 -15 41 -33z"/>
</g>
</svg>
