<?xml version="1.0" encoding="iso-8859-1"?>
<!-- Generator: Adobe Illustrator 16.0.0, SVG Export Plug-In . SVG Version: 6.00 Build 0)  -->
<!DOCTYPE svg PUBLIC "-//W3C//DTD SVG 1.1//EN" "http://www.w3.org/Graphics/SVG/1.1/DTD/svg11.dtd">
<svg version="1.1" id="Capa_1" xmlns="http://www.w3.org/2000/svg" xmlns:xlink="http://www.w3.org/1999/xlink" x="0px" y="0px"
	 width="586.407px" height="586.407px" viewBox="0 0 586.407 586.407" style="enable-background:new 0 0 586.407 586.407;"
	 xml:space="preserve">
<g>
	<path d="M516.483,199.911l-69.922-40.371v53.805c-37.166,3.11-67.825,13.334-93.189,31.013c-11.6,8.085-21.887,17.585-30.94,28.608
		V141.878h52.774l-40.369-69.922L294.469,2.034l-40.371,69.924l-40.371,69.922h52.777v131.087
		c-9.054-11.023-19.34-20.524-30.94-28.609c-25.937-18.078-57.41-28.362-95.716-31.214V159.54l-69.923,40.371L0,240.28l69.924,40.37
		l69.924,40.369v-51.722c120.709,11.522,126.656,119.075,126.656,315.077h55.927c0-194.636,5.847-302.066,124.131-314.838v51.482
		l69.922-40.37l69.924-40.37L516.483,199.911z"/>
</g>
<g>
</g>
<g>
</g>
<g>
</g>
<g>
</g>
<g>
</g>
<g>
</g>
<g>
</g>
<g>
</g>
<g>
</g>
<g>
</g>
<g>
</g>
<g>
</g>
<g>
</g>
<g>
</g>
<g>
</g>
</svg>
