<?xml version="1.0" encoding="iso-8859-1"?>
<!-- Generator: Adobe Illustrator 16.0.0, SVG Export Plug-In . SVG Version: 6.00 Build 0)  -->
<!DOCTYPE svg PUBLIC "-//W3C//DTD SVG 1.1//EN" "http://www.w3.org/Graphics/SVG/1.1/DTD/svg11.dtd">
<svg version="1.1" id="Capa_1" xmlns="http://www.w3.org/2000/svg" xmlns:xlink="http://www.w3.org/1999/xlink" x="0px" y="0px"
	 width="40.012px" height="40.012px" viewBox="0 0 40.012 40.012" style="enable-background:new 0 0 40.012 40.012;"
	 xml:space="preserve">
<g>
	<path d="M40.012,37.789H0l1.104-5.809c0.008-1.704,1.204-1.745,2.631-2.316l6.67-2.671c0.102-0.04,0.201-0.082,0.301-0.127
		l0.007-0.026l0.019-0.067l0.019-0.067c1.264-0.571,2.354-1.36,2.685-1.909c0.223-0.371,0.467-0.511,0.647-0.35
		c0.036,0.002,0.065,0.021,0.086,0.048c0.188-0.569,0.376-1.141,0.563-1.71c0.062-0.219,0.193-0.11,0.26,0.057l-0.146-0.58
		l-0.083-1.044c-0.13-0.139-0.234-0.254-0.304-0.332c-0.438-0.497-0.468-1.81-0.687-2.13c-0.219-0.32-0.651-0.39-1.089-1.879
		c-0.437-1.491-0.966-3.62-0.405-3.655c0.053-0.003,0.107,0.009,0.166,0.031c-0.037-0.208-0.08-0.211-0.127-0.502
		c-0.084-0.557-0.406-1.471-0.437-2.013c-0.06-1.207,0.244-4.611,0.928-5.747c0.685-1.136,1.757-2.096,3.285-2.438
		c1.341-0.301,5.304-0.558,6.562,0c0.422,0.186,0.938,0.458,1.455,0.788c0.862,0.548,1.729,1.25,2.158,1.959
		c0.688,1.135,0.887,4.229,0.824,5.438c-0.047,0.916-0.256,2.157-0.354,2.706c0.16-0.144,0.315-0.231,0.455-0.224
		c0.56,0.035,0.027,2.164-0.408,3.655c-0.437,1.489-0.87,1.559-1.088,1.879c-0.219,0.32-0.25,1.633-0.685,2.13
		c-0.067,0.074-0.167,0.183-0.289,0.313l-0.075,1.278c-0.043,0.707,0.145,0.054,0.213,0.308c0.045,0.137,0.343,1.063,0.521,1.553
		c0.074,0.198,0.038,0.301,0.221,0.207l0.008-0.007l0.006-0.002l0.009-0.003l0.001-0.001l0.004-0.002l0.01-0.005
		c0.151-0.052,0.331,0.067,0.51,0.336v0.002l0.015,0.017l0.003,0.007l0.018,0.027c0.021,0.033,0.043,0.066,0.063,0.102l0.005,0.009
		l0.016,0.019c0.385,0.524,1.43,1.271,2.615,1.809v0.004c0.112,0.05,0.229,0.1,0.344,0.145l6.67,2.671
		c1.428,0.571,2.623,0.612,2.631,2.316L40.012,37.789z"/>
</g>
<g>
</g>
<g>
</g>
<g>
</g>
<g>
</g>
<g>
</g>
<g>
</g>
<g>
</g>
<g>
</g>
<g>
</g>
<g>
</g>
<g>
</g>
<g>
</g>
<g>
</g>
<g>
</g>
<g>
</g>
</svg>
